<mxfile host="app.diagrams.net" modified="2020-06-17T13:58:55.305Z" agent="5.0 (Windows NT 10.0; Win64; x64) AppleWebKit/537.36 (KHTML, like Gecko) Chrome/83.0.4103.97 Safari/537.36" etag="X5M9CFfzg7_fYNxp4dcT" version="13.2.6" type="github">
  <diagram id="8TGCa_ktwGSLHj1pzFkR" name="Page-1">
    <mxGraphModel dx="782" dy="437" grid="1" gridSize="10" guides="1" tooltips="1" connect="1" arrows="1" fold="1" page="1" pageScale="1" pageWidth="850" pageHeight="1100" math="0" shadow="0">
      <root>
        <mxCell id="0" />
        <mxCell id="1" parent="0" />
        <mxCell id="qzlA5_UaND0cFiVb6v2D-30" value="XMPP Server" style="rounded=0;whiteSpace=wrap;html=1;" parent="1" vertex="1">
          <mxGeometry x="650" y="160" width="190" height="320" as="geometry" />
        </mxCell>
        <mxCell id="qzlA5_UaND0cFiVb6v2D-23" value="Asset Server" style="rounded=0;whiteSpace=wrap;html=1;verticalAlign=top;" parent="1" vertex="1">
          <mxGeometry x="660" y="220" width="170" height="80" as="geometry" />
        </mxCell>
        <mxCell id="qzlA5_UaND0cFiVb6v2D-3" value="" style="rounded=0;whiteSpace=wrap;html=1;points=[[0.225,1],[0.775,1]]" parent="1" vertex="1">
          <mxGeometry x="200" y="80" width="400" height="80" as="geometry" />
        </mxCell>
        <mxCell id="qzlA5_UaND0cFiVb6v2D-2" value="User" style="shape=umlActor;verticalLabelPosition=bottom;labelBackgroundColor=#ffffff;verticalAlign=top;html=1;outlineConnect=0;" parent="1" vertex="1">
          <mxGeometry x="390" y="90" width="20" height="40" as="geometry" />
        </mxCell>
        <mxCell id="qzlA5_UaND0cFiVb6v2D-10" value="Identitiy Management" style="rounded=0;whiteSpace=wrap;html=1;" parent="1" vertex="1">
          <mxGeometry x="200" y="210" width="180" height="80" as="geometry" />
        </mxCell>
        <mxCell id="qzlA5_UaND0cFiVb6v2D-12" value="HTTP Server" style="rounded=0;whiteSpace=wrap;html=1;verticalAlign=top;" parent="1" vertex="1">
          <mxGeometry x="420" y="210" width="180" height="80" as="geometry" />
        </mxCell>
        <mxCell id="qzlA5_UaND0cFiVb6v2D-14" value="UI" style="rounded=0;whiteSpace=wrap;html=1;" parent="1" vertex="1">
          <mxGeometry x="430" y="240" width="70" height="40" as="geometry" />
        </mxCell>
        <mxCell id="qzlA5_UaND0cFiVb6v2D-15" value="Proxy" style="rounded=0;whiteSpace=wrap;html=1;" parent="1" vertex="1">
          <mxGeometry x="520" y="240" width="70" height="40" as="geometry" />
        </mxCell>
        <mxCell id="qzlA5_UaND0cFiVb6v2D-18" value="Stream Server" style="rounded=0;whiteSpace=wrap;html=1;points=[[0.225,0],[0.775,0],[0.5,1]]" parent="1" vertex="1">
          <mxGeometry x="200" y="340" width="400" height="40" as="geometry" />
        </mxCell>
        <mxCell id="qzlA5_UaND0cFiVb6v2D-19" value="NoSQL DB" style="rounded=0;whiteSpace=wrap;html=1;" parent="1" vertex="1">
          <mxGeometry x="200" y="430" width="400" height="49.38" as="geometry" />
        </mxCell>
        <mxCell id="qzlA5_UaND0cFiVb6v2D-20" value="Metadata" style="rounded=1;whiteSpace=wrap;html=1;arcSize=50;" parent="1" vertex="1">
          <mxGeometry x="750" y="250" width="70" height="40" as="geometry" />
        </mxCell>
        <mxCell id="qzlA5_UaND0cFiVb6v2D-21" value="Visual" style="rounded=1;whiteSpace=wrap;html=1;arcSize=50;" parent="1" vertex="1">
          <mxGeometry x="670" y="250" width="70" height="40" as="geometry" />
        </mxCell>
        <mxCell id="qzlA5_UaND0cFiVb6v2D-26" value="Workflow Engine" style="rounded=0;whiteSpace=wrap;html=1;verticalAlign=top;" parent="1" vertex="1">
          <mxGeometry x="660" y="310" width="170" height="80" as="geometry" />
        </mxCell>
        <mxCell id="qzlA5_UaND0cFiVb6v2D-27" value="CMMN" style="rounded=1;whiteSpace=wrap;html=1;arcSize=50;" parent="1" vertex="1">
          <mxGeometry x="750" y="340" width="70" height="40" as="geometry" />
        </mxCell>
        <mxCell id="qzlA5_UaND0cFiVb6v2D-28" value="BPMN" style="rounded=1;whiteSpace=wrap;html=1;arcSize=50;" parent="1" vertex="1">
          <mxGeometry x="670" y="340" width="70" height="40" as="geometry" />
        </mxCell>
        <mxCell id="qzlA5_UaND0cFiVb6v2D-32" value="ERP" style="rounded=0;whiteSpace=wrap;html=1;" parent="1" vertex="1">
          <mxGeometry x="30" y="210" width="120" height="270" as="geometry" />
        </mxCell>
        <mxCell id="qzlA5_UaND0cFiVb6v2D-33" value="..." style="rounded=0;whiteSpace=wrap;html=1;fontStyle=1;fontSize=20;verticalAlign=middle;rotation=90;strokeColor=none;fillColor=none;" parent="1" vertex="1">
          <mxGeometry x="738" y="440" width="40" height="39.38" as="geometry" />
        </mxCell>
        <mxCell id="qzlA5_UaND0cFiVb6v2D-29" value="XMPP Server" style="rounded=0;whiteSpace=wrap;html=1;" parent="1" vertex="1">
          <mxGeometry x="660" y="400" width="170" height="40" as="geometry" />
        </mxCell>
        <mxCell id="qzlA5_UaND0cFiVb6v2D-34" value="" style="endArrow=none;html=1;fontSize=15;exitX=0.5;exitY=0;exitDx=0;exitDy=0;entryX=0.225;entryY=1;entryDx=0;entryDy=0;" parent="1" source="qzlA5_UaND0cFiVb6v2D-35" target="qzlA5_UaND0cFiVb6v2D-3" edge="1">
          <mxGeometry width="50" height="50" relative="1" as="geometry">
            <mxPoint x="180" y="220" as="sourcePoint" />
            <mxPoint x="240" y="185" as="targetPoint" />
          </mxGeometry>
        </mxCell>
        <mxCell id="qzlA5_UaND0cFiVb6v2D-35" value="" style="ellipse;whiteSpace=wrap;html=1;aspect=fixed;fillColor=none;fontSize=15;" parent="1" vertex="1">
          <mxGeometry x="285" y="180" width="10" height="10" as="geometry" />
        </mxCell>
        <mxCell id="qzlA5_UaND0cFiVb6v2D-39" value="" style="endArrow=none;html=1;fontSize=15;exitX=0.5;exitY=0;exitDx=0;exitDy=0;entryX=0.5;entryY=1;entryDx=0;entryDy=0;" parent="1" source="qzlA5_UaND0cFiVb6v2D-10" target="qzlA5_UaND0cFiVb6v2D-35" edge="1">
          <mxGeometry width="50" height="50" relative="1" as="geometry">
            <mxPoint x="290" y="190" as="sourcePoint" />
            <mxPoint x="290" y="170" as="targetPoint" />
          </mxGeometry>
        </mxCell>
        <mxCell id="qzlA5_UaND0cFiVb6v2D-46" value="" style="endArrow=none;html=1;fontSize=15;exitX=0.5;exitY=0;exitDx=0;exitDy=0;entryX=0.775;entryY=1;entryDx=0;entryDy=0;" parent="1" source="qzlA5_UaND0cFiVb6v2D-47" target="qzlA5_UaND0cFiVb6v2D-3" edge="1">
          <mxGeometry width="50" height="50" relative="1" as="geometry">
            <mxPoint x="295" y="230" as="sourcePoint" />
            <mxPoint x="395" y="170" as="targetPoint" />
          </mxGeometry>
        </mxCell>
        <mxCell id="qzlA5_UaND0cFiVb6v2D-47" value="" style="ellipse;whiteSpace=wrap;html=1;aspect=fixed;fillColor=none;fontSize=15;" parent="1" vertex="1">
          <mxGeometry x="505" y="180" width="10" height="10" as="geometry" />
        </mxCell>
        <mxCell id="qzlA5_UaND0cFiVb6v2D-48" value="" style="endArrow=none;html=1;fontSize=15;exitX=0.5;exitY=0;exitDx=0;exitDy=0;entryX=0.5;entryY=1;entryDx=0;entryDy=0;" parent="1" source="qzlA5_UaND0cFiVb6v2D-12" target="qzlA5_UaND0cFiVb6v2D-47" edge="1">
          <mxGeometry width="50" height="50" relative="1" as="geometry">
            <mxPoint x="395" y="220" as="sourcePoint" />
            <mxPoint x="405" y="180" as="targetPoint" />
          </mxGeometry>
        </mxCell>
        <mxCell id="qzlA5_UaND0cFiVb6v2D-49" value="" style="endArrow=none;html=1;fontSize=15;exitX=0.5;exitY=0;exitDx=0;exitDy=0;entryX=0.5;entryY=1;entryDx=0;entryDy=0;" parent="1" source="qzlA5_UaND0cFiVb6v2D-50" target="qzlA5_UaND0cFiVb6v2D-10" edge="1">
          <mxGeometry width="50" height="50" relative="1" as="geometry">
            <mxPoint x="190" y="314" as="sourcePoint" />
            <mxPoint x="300" y="254" as="targetPoint" />
          </mxGeometry>
        </mxCell>
        <mxCell id="qzlA5_UaND0cFiVb6v2D-50" value="" style="ellipse;whiteSpace=wrap;html=1;aspect=fixed;fillColor=none;fontSize=15;" parent="1" vertex="1">
          <mxGeometry x="285" y="310" width="10" height="10" as="geometry" />
        </mxCell>
        <mxCell id="qzlA5_UaND0cFiVb6v2D-51" value="" style="endArrow=none;html=1;fontSize=15;exitX=0.225;exitY=0;exitDx=0;exitDy=0;entryX=0.5;entryY=1;entryDx=0;entryDy=0;" parent="1" source="qzlA5_UaND0cFiVb6v2D-18" target="qzlA5_UaND0cFiVb6v2D-50" edge="1">
          <mxGeometry width="50" height="50" relative="1" as="geometry">
            <mxPoint x="300" y="304" as="sourcePoint" />
            <mxPoint x="300" y="264" as="targetPoint" />
          </mxGeometry>
        </mxCell>
        <mxCell id="qzlA5_UaND0cFiVb6v2D-53" value="" style="ellipse;whiteSpace=wrap;html=1;aspect=fixed;fillColor=none;fontSize=15;" parent="1" vertex="1">
          <mxGeometry x="505" y="310" width="10" height="10" as="geometry" />
        </mxCell>
        <mxCell id="qzlA5_UaND0cFiVb6v2D-54" value="" style="endArrow=none;html=1;fontSize=15;exitX=0.5;exitY=0;exitDx=0;exitDy=0;entryX=0.5;entryY=1;entryDx=0;entryDy=0;" parent="1" source="qzlA5_UaND0cFiVb6v2D-53" target="qzlA5_UaND0cFiVb6v2D-12" edge="1">
          <mxGeometry width="50" height="50" relative="1" as="geometry">
            <mxPoint x="300" y="350" as="sourcePoint" />
            <mxPoint x="300" y="330" as="targetPoint" />
          </mxGeometry>
        </mxCell>
        <mxCell id="qzlA5_UaND0cFiVb6v2D-55" value="" style="endArrow=none;html=1;fontSize=15;exitX=0.775;exitY=0;exitDx=0;exitDy=0;entryX=0.5;entryY=1;entryDx=0;entryDy=0;" parent="1" source="qzlA5_UaND0cFiVb6v2D-18" target="qzlA5_UaND0cFiVb6v2D-53" edge="1">
          <mxGeometry width="50" height="50" relative="1" as="geometry">
            <mxPoint x="520" y="320" as="sourcePoint" />
            <mxPoint x="520" y="300.00000000000006" as="targetPoint" />
          </mxGeometry>
        </mxCell>
        <mxCell id="qzlA5_UaND0cFiVb6v2D-56" value="" style="ellipse;whiteSpace=wrap;html=1;aspect=fixed;fillColor=none;fontSize=15;" parent="1" vertex="1">
          <mxGeometry x="395" y="400" width="10" height="10" as="geometry" />
        </mxCell>
        <mxCell id="qzlA5_UaND0cFiVb6v2D-57" value="" style="endArrow=none;html=1;fontSize=15;exitX=0.5;exitY=0;exitDx=0;exitDy=0;entryX=0.5;entryY=1;entryDx=0;entryDy=0;" parent="1" source="qzlA5_UaND0cFiVb6v2D-56" target="qzlA5_UaND0cFiVb6v2D-18" edge="1">
          <mxGeometry width="50" height="50" relative="1" as="geometry">
            <mxPoint x="190" y="440" as="sourcePoint" />
            <mxPoint x="370" y="400" as="targetPoint" />
          </mxGeometry>
        </mxCell>
        <mxCell id="qzlA5_UaND0cFiVb6v2D-58" value="" style="endArrow=none;html=1;fontSize=15;entryX=0.5;entryY=1;entryDx=0;entryDy=0;exitX=0.5;exitY=0;exitDx=0;exitDy=0;" parent="1" source="qzlA5_UaND0cFiVb6v2D-19" target="qzlA5_UaND0cFiVb6v2D-56" edge="1">
          <mxGeometry width="50" height="50" relative="1" as="geometry">
            <mxPoint x="370" y="420" as="sourcePoint" />
            <mxPoint x="410" y="390.00000000000006" as="targetPoint" />
          </mxGeometry>
        </mxCell>
        <mxCell id="qzlA5_UaND0cFiVb6v2D-60" value="" style="ellipse;whiteSpace=wrap;html=1;aspect=fixed;fillColor=none;fontSize=15;" parent="1" vertex="1">
          <mxGeometry x="620" y="255" width="10" height="10" as="geometry" />
        </mxCell>
        <mxCell id="qzlA5_UaND0cFiVb6v2D-61" value="" style="ellipse;whiteSpace=wrap;html=1;aspect=fixed;fillColor=none;fontSize=15;" parent="1" vertex="1">
          <mxGeometry x="620" y="449.69" width="10" height="10" as="geometry" />
        </mxCell>
        <mxCell id="qzlA5_UaND0cFiVb6v2D-62" value="" style="endArrow=none;html=1;fontSize=15;exitX=1;exitY=0.5;exitDx=0;exitDy=0;entryX=0;entryY=0.5;entryDx=0;entryDy=0;" parent="1" source="qzlA5_UaND0cFiVb6v2D-15" target="qzlA5_UaND0cFiVb6v2D-60" edge="1">
          <mxGeometry width="50" height="50" relative="1" as="geometry">
            <mxPoint x="580" y="360" as="sourcePoint" />
            <mxPoint x="630" y="310" as="targetPoint" />
          </mxGeometry>
        </mxCell>
        <mxCell id="qzlA5_UaND0cFiVb6v2D-63" value="" style="endArrow=none;html=1;fontSize=15;entryX=0;entryY=0.5;entryDx=0;entryDy=0;exitX=1;exitY=0.5;exitDx=0;exitDy=0;" parent="1" source="qzlA5_UaND0cFiVb6v2D-19" target="qzlA5_UaND0cFiVb6v2D-61" edge="1">
          <mxGeometry width="50" height="50" relative="1" as="geometry">
            <mxPoint x="610" y="470" as="sourcePoint" />
            <mxPoint x="630" y="364.69" as="targetPoint" />
          </mxGeometry>
        </mxCell>
        <mxCell id="qzlA5_UaND0cFiVb6v2D-64" value="" style="endArrow=none;html=1;fontSize=15;exitX=1;exitY=0.5;exitDx=0;exitDy=0;entryX=0;entryY=0.556;entryDx=0;entryDy=0;entryPerimeter=0;" parent="1" source="qzlA5_UaND0cFiVb6v2D-61" edge="1">
          <mxGeometry width="50" height="50" relative="1" as="geometry">
            <mxPoint x="590" y="364.69" as="sourcePoint" />
            <mxPoint x="650" y="454.81" as="targetPoint" />
          </mxGeometry>
        </mxCell>
        <mxCell id="qzlA5_UaND0cFiVb6v2D-65" value="" style="endArrow=none;html=1;fontSize=15;entryX=1;entryY=0.5;entryDx=0;entryDy=0;exitX=0;exitY=0.313;exitDx=0;exitDy=0;exitPerimeter=0;" parent="1" source="qzlA5_UaND0cFiVb6v2D-30" target="qzlA5_UaND0cFiVb6v2D-60" edge="1">
          <mxGeometry width="50" height="50" relative="1" as="geometry">
            <mxPoint x="580" y="360" as="sourcePoint" />
            <mxPoint x="630" y="310" as="targetPoint" />
          </mxGeometry>
        </mxCell>
        <mxCell id="qzlA5_UaND0cFiVb6v2D-69" value="" style="ellipse;whiteSpace=wrap;html=1;aspect=fixed;fillColor=none;fontSize=15;" parent="1" vertex="1">
          <mxGeometry x="170" y="355" width="10" height="10" as="geometry" />
        </mxCell>
        <mxCell id="qzlA5_UaND0cFiVb6v2D-70" value="" style="endArrow=none;html=1;fontSize=15;entryX=0;entryY=0.5;entryDx=0;entryDy=0;exitX=1;exitY=0.556;exitDx=0;exitDy=0;exitPerimeter=0;" parent="1" source="qzlA5_UaND0cFiVb6v2D-32" target="qzlA5_UaND0cFiVb6v2D-69" edge="1">
          <mxGeometry width="50" height="50" relative="1" as="geometry">
            <mxPoint x="180" y="430" as="sourcePoint" />
            <mxPoint x="230" y="380" as="targetPoint" />
          </mxGeometry>
        </mxCell>
        <mxCell id="qzlA5_UaND0cFiVb6v2D-71" value="" style="endArrow=none;html=1;fontSize=15;entryX=1;entryY=0.5;entryDx=0;entryDy=0;" parent="1" source="qzlA5_UaND0cFiVb6v2D-18" target="qzlA5_UaND0cFiVb6v2D-69" edge="1">
          <mxGeometry width="50" height="50" relative="1" as="geometry">
            <mxPoint x="180" y="440" as="sourcePoint" />
            <mxPoint x="230" y="390" as="targetPoint" />
          </mxGeometry>
        </mxCell>
        <mxCell id="DiiYMwunppkMj44Wbucp-2" value="Content Server" style="rounded=0;whiteSpace=wrap;html=1;" vertex="1" parent="1">
          <mxGeometry x="660" y="170" width="170" height="40" as="geometry" />
        </mxCell>
        <mxCell id="DiiYMwunppkMj44Wbucp-20" value="" style="group" vertex="1" connectable="0" parent="1">
          <mxGeometry x="520" y="170" width="20" height="30" as="geometry" />
        </mxCell>
        <mxCell id="DiiYMwunppkMj44Wbucp-17" value="R" style="text;html=1;align=center;verticalAlign=middle;resizable=0;points=[];autosize=1;" vertex="1" parent="DiiYMwunppkMj44Wbucp-20">
          <mxGeometry width="20" height="20" as="geometry" />
        </mxCell>
        <mxCell id="DiiYMwunppkMj44Wbucp-18" value="" style="triangle;whiteSpace=wrap;html=1;fillColor=#000000;strokeColor=none;rotation=90;" vertex="1" parent="DiiYMwunppkMj44Wbucp-20">
          <mxGeometry x="5" y="20" width="10" height="10" as="geometry" />
        </mxCell>
        <mxCell id="DiiYMwunppkMj44Wbucp-21" value="" style="group" vertex="1" connectable="0" parent="1">
          <mxGeometry x="610" y="235" width="20" height="20" as="geometry" />
        </mxCell>
        <mxCell id="DiiYMwunppkMj44Wbucp-22" value="R" style="text;html=1;align=center;verticalAlign=middle;resizable=0;points=[];autosize=1;" vertex="1" parent="DiiYMwunppkMj44Wbucp-21">
          <mxGeometry width="20" height="20" as="geometry" />
        </mxCell>
        <mxCell id="DiiYMwunppkMj44Wbucp-23" value="" style="triangle;whiteSpace=wrap;html=1;fillColor=#000000;strokeColor=none;rotation=0;" vertex="1" parent="1">
          <mxGeometry x="630" y="240" width="10" height="10" as="geometry" />
        </mxCell>
        <mxCell id="DiiYMwunppkMj44Wbucp-24" value="" style="group" vertex="1" connectable="0" parent="1">
          <mxGeometry x="620" y="430" width="20" height="20" as="geometry" />
        </mxCell>
        <mxCell id="DiiYMwunppkMj44Wbucp-25" value="R" style="text;html=1;align=center;verticalAlign=middle;resizable=0;points=[];autosize=1;" vertex="1" parent="DiiYMwunppkMj44Wbucp-24">
          <mxGeometry width="20" height="20" as="geometry" />
        </mxCell>
        <mxCell id="DiiYMwunppkMj44Wbucp-26" value="" style="triangle;whiteSpace=wrap;html=1;fillColor=#000000;strokeColor=none;rotation=-180;" vertex="1" parent="DiiYMwunppkMj44Wbucp-24">
          <mxGeometry x="-10" y="5" width="10" height="10" as="geometry" />
        </mxCell>
        <mxCell id="DiiYMwunppkMj44Wbucp-27" value="" style="group" vertex="1" connectable="0" parent="1">
          <mxGeometry x="300" y="170" width="20" height="30" as="geometry" />
        </mxCell>
        <mxCell id="DiiYMwunppkMj44Wbucp-28" value="R" style="text;html=1;align=center;verticalAlign=middle;resizable=0;points=[];autosize=1;" vertex="1" parent="DiiYMwunppkMj44Wbucp-27">
          <mxGeometry width="20" height="20" as="geometry" />
        </mxCell>
        <mxCell id="DiiYMwunppkMj44Wbucp-29" value="" style="triangle;whiteSpace=wrap;html=1;fillColor=#000000;strokeColor=none;rotation=90;" vertex="1" parent="DiiYMwunppkMj44Wbucp-27">
          <mxGeometry x="5" y="20" width="10" height="10" as="geometry" />
        </mxCell>
        <mxCell id="DiiYMwunppkMj44Wbucp-31" value="R" style="text;html=1;strokeColor=none;fillColor=none;align=center;verticalAlign=middle;whiteSpace=wrap;rounded=0;" vertex="1" parent="1">
          <mxGeometry x="300" y="310" width="20" height="20" as="geometry" />
        </mxCell>
        <mxCell id="DiiYMwunppkMj44Wbucp-32" value="" style="triangle;whiteSpace=wrap;html=1;fillColor=#000000;strokeColor=none;rotation=-90;" vertex="1" parent="1">
          <mxGeometry x="305" y="300" width="10" height="10" as="geometry" />
        </mxCell>
        <mxCell id="DiiYMwunppkMj44Wbucp-33" value="" style="group" vertex="1" connectable="0" parent="1">
          <mxGeometry x="520" y="300" width="20" height="30" as="geometry" />
        </mxCell>
        <mxCell id="DiiYMwunppkMj44Wbucp-34" value="R" style="text;html=1;align=center;verticalAlign=middle;resizable=0;points=[];autosize=1;" vertex="1" parent="DiiYMwunppkMj44Wbucp-33">
          <mxGeometry width="20" height="20" as="geometry" />
        </mxCell>
        <mxCell id="DiiYMwunppkMj44Wbucp-35" value="" style="triangle;whiteSpace=wrap;html=1;fillColor=#000000;strokeColor=none;rotation=90;" vertex="1" parent="DiiYMwunppkMj44Wbucp-33">
          <mxGeometry x="5" y="20" width="10" height="10" as="geometry" />
        </mxCell>
        <mxCell id="DiiYMwunppkMj44Wbucp-36" value="" style="group" vertex="1" connectable="0" parent="1">
          <mxGeometry x="160" y="335" width="20" height="20" as="geometry" />
        </mxCell>
        <mxCell id="DiiYMwunppkMj44Wbucp-37" value="R" style="text;html=1;align=center;verticalAlign=middle;resizable=0;points=[];autosize=1;" vertex="1" parent="DiiYMwunppkMj44Wbucp-36">
          <mxGeometry width="20" height="20" as="geometry" />
        </mxCell>
        <mxCell id="DiiYMwunppkMj44Wbucp-38" value="" style="triangle;whiteSpace=wrap;html=1;fillColor=#000000;strokeColor=none;rotation=0;" vertex="1" parent="1">
          <mxGeometry x="180" y="340" width="10" height="10" as="geometry" />
        </mxCell>
        <mxCell id="DiiYMwunppkMj44Wbucp-39" value="Login" style="text;html=1;align=center;verticalAlign=middle;resizable=0;points=[];autosize=1;" vertex="1" parent="1">
          <mxGeometry x="240" y="175" width="40" height="20" as="geometry" />
        </mxCell>
        <mxCell id="DiiYMwunppkMj44Wbucp-42" value="Sync" style="text;html=1;align=center;verticalAlign=middle;resizable=0;points=[];autosize=1;" vertex="1" parent="1">
          <mxGeometry x="155" y="365" width="40" height="20" as="geometry" />
        </mxCell>
        <mxCell id="DiiYMwunppkMj44Wbucp-43" value="Verify&lt;br&gt;Token" style="text;html=1;align=center;verticalAlign=middle;resizable=0;points=[];autosize=1;" vertex="1" parent="1">
          <mxGeometry x="240" y="300" width="50" height="30" as="geometry" />
        </mxCell>
        <mxCell id="DiiYMwunppkMj44Wbucp-44" value="" style="ellipse;whiteSpace=wrap;html=1;aspect=fixed;fillColor=none;fontSize=15;" vertex="1" parent="1">
          <mxGeometry x="395" y="245" width="10" height="10" as="geometry" />
        </mxCell>
        <mxCell id="DiiYMwunppkMj44Wbucp-45" value="" style="endArrow=none;html=1;fontSize=15;entryX=0;entryY=0.5;entryDx=0;entryDy=0;exitX=1;exitY=0.5;exitDx=0;exitDy=0;" edge="1" parent="1" target="DiiYMwunppkMj44Wbucp-44" source="qzlA5_UaND0cFiVb6v2D-10">
          <mxGeometry width="50" height="50" relative="1" as="geometry">
            <mxPoint x="375" y="250.00000000000006" as="sourcePoint" />
            <mxPoint x="405" y="160" as="targetPoint" />
          </mxGeometry>
        </mxCell>
        <mxCell id="DiiYMwunppkMj44Wbucp-46" value="" style="endArrow=none;html=1;fontSize=15;exitX=1;exitY=0.5;exitDx=0;exitDy=0;entryX=0;entryY=0.5;entryDx=0;entryDy=0;" edge="1" parent="1" source="DiiYMwunppkMj44Wbucp-44" target="qzlA5_UaND0cFiVb6v2D-12">
          <mxGeometry width="50" height="50" relative="1" as="geometry">
            <mxPoint x="365" y="160" as="sourcePoint" />
            <mxPoint x="425" y="250.11999999999995" as="targetPoint" />
          </mxGeometry>
        </mxCell>
        <mxCell id="DiiYMwunppkMj44Wbucp-47" value="" style="group" vertex="1" connectable="0" parent="1">
          <mxGeometry x="395" y="225.31" width="20" height="20" as="geometry" />
        </mxCell>
        <mxCell id="DiiYMwunppkMj44Wbucp-48" value="R" style="text;html=1;align=center;verticalAlign=middle;resizable=0;points=[];autosize=1;" vertex="1" parent="DiiYMwunppkMj44Wbucp-47">
          <mxGeometry width="20" height="20" as="geometry" />
        </mxCell>
        <mxCell id="DiiYMwunppkMj44Wbucp-49" value="" style="triangle;whiteSpace=wrap;html=1;fillColor=#000000;strokeColor=none;rotation=-180;" vertex="1" parent="DiiYMwunppkMj44Wbucp-47">
          <mxGeometry x="-10" y="5" width="10" height="10" as="geometry" />
        </mxCell>
        <mxCell id="DiiYMwunppkMj44Wbucp-50" value="Auth" style="text;html=1;align=center;verticalAlign=middle;resizable=0;points=[];autosize=1;" vertex="1" parent="1">
          <mxGeometry x="380" y="250" width="40" height="20" as="geometry" />
        </mxCell>
        <mxCell id="DiiYMwunppkMj44Wbucp-51" value="Subscribe" style="text;html=1;align=center;verticalAlign=middle;resizable=0;points=[];autosize=1;" vertex="1" parent="1">
          <mxGeometry x="435" y="305" width="70" height="20" as="geometry" />
        </mxCell>
        <mxCell id="DiiYMwunppkMj44Wbucp-52" value="Redirect" style="text;html=1;align=center;verticalAlign=middle;resizable=0;points=[];autosize=1;" vertex="1" parent="1">
          <mxGeometry x="595" y="265" width="60" height="20" as="geometry" />
        </mxCell>
        <mxCell id="DiiYMwunppkMj44Wbucp-53" value="Sync" style="text;html=1;align=center;verticalAlign=middle;resizable=0;points=[];autosize=1;" vertex="1" parent="1">
          <mxGeometry x="605" y="459.38" width="40" height="20" as="geometry" />
        </mxCell>
        <mxCell id="DiiYMwunppkMj44Wbucp-54" value="" style="group" vertex="1" connectable="0" parent="1">
          <mxGeometry x="370" y="390" width="20" height="30" as="geometry" />
        </mxCell>
        <mxCell id="DiiYMwunppkMj44Wbucp-55" value="R" style="text;html=1;align=center;verticalAlign=middle;resizable=0;points=[];autosize=1;" vertex="1" parent="DiiYMwunppkMj44Wbucp-54">
          <mxGeometry width="20" height="20" as="geometry" />
        </mxCell>
        <mxCell id="DiiYMwunppkMj44Wbucp-56" value="" style="triangle;whiteSpace=wrap;html=1;fillColor=#000000;strokeColor=none;rotation=90;" vertex="1" parent="DiiYMwunppkMj44Wbucp-54">
          <mxGeometry x="5" y="20" width="10" height="10" as="geometry" />
        </mxCell>
      </root>
    </mxGraphModel>
  </diagram>
</mxfile>
